<?xml version="1.0" standalone="no"?>
<!DOCTYPE svg PUBLIC "-//W3C//DTD SVG 20010904//EN"
 "http://www.w3.org/TR/2001/REC-SVG-20010904/DTD/svg10.dtd">
<svg version="1.0" xmlns="http://www.w3.org/2000/svg"
 width="128.000000pt" height="300.000000pt" viewBox="0 0 128.000000 300.000000"
 preserveAspectRatio="xMidYMid meet">
<metadata>
Created by potrace 1.10, written by Peter Selinger 2001-2011
</metadata>
<g transform="translate(0.000000,300.000000) scale(0.100000,-0.100000)"
fill="#000000" stroke="none">
<path d="M630 2890 c0 -5 -16 -10 -35 -10 -33 0 -35 -2 -35 -34 0 -18 -7 -50
-15 -69 -9 -22 -15 -68 -15 -114 0 -67 -3 -80 -20 -91 -25 -15 -25 -39 0 -77
11 -16 20 -41 20 -54 0 -15 15 -39 41 -64 l42 -39 85 4 85 3 -6 -87 c-4 -69
-3 -88 7 -88 8 0 19 -6 25 -14 9 -11 8 -15 -4 -20 -9 -3 -13 -11 -9 -17 5 -9
11 -7 19 4 7 9 16 13 20 9 4 -4 0 5 -10 21 -9 15 -22 27 -28 27 -5 0 0 8 11
19 31 26 32 123 2 144 -20 14 -20 14 5 31 35 23 44 51 45 143 1 43 6 117 12
166 13 99 6 135 -32 154 -14 7 -26 17 -26 23 -3 23 -5 24 -15 8 -7 -13 -14
-15 -27 -8 -23 13 -109 40 -127 40 -8 0 -15 -4 -15 -10z m103 -50 c31 -11 63
-20 70 -20 8 0 19 -11 25 -25 25 -54 6 -76 -24 -29 -15 22 -22 25 -48 19 -17
-4 -62 -8 -99 -10 l-69 -3 7 37 c11 58 42 65 138 31z m-39 -96 c92 14 89 15
116 -39 33 -68 40 -161 13 -194 -19 -23 -22 -24 -66 -11 -32 8 -51 9 -59 3 -7
-6 -39 -13 -70 -17 -44 -5 -60 -3 -72 10 -31 30 -12 157 34 232 18 29 23 31
41 21 12 -6 39 -8 63 -5z m57 -305 c-36 -29 -141 -25 -141 6 0 9 16 13 54 13
29 0 62 4 72 10 31 18 44 -6 15 -29z m69 14 c0 -24 -43 -73 -67 -79 -15 -3
-33 -7 -39 -9 -25 -7 -105 17 -114 36 -13 23 -13 23 38 -1 58 -28 77 -25 120
19 34 36 62 51 62 34z"/>
<path d="M596 2649 c-35 -28 -33 -39 7 -27 17 6 38 12 45 14 19 5 14 34 -7 34
-10 0 -30 -9 -45 -21z"/>
<path d="M714 2659 c-10 -16 7 -26 56 -32 l45 -6 -28 25 c-30 25 -61 31 -73
13z"/>
<path d="M573 2593 c-7 -2 -13 -9 -13 -14 0 -6 5 -7 10 -4 6 4 18 4 28 0 14
-5 14 -7 2 -15 -13 -8 -12 -10 3 -10 9 0 17 5 17 11 0 5 5 7 10 4 6 -3 10 -2
10 4 0 20 -41 35 -67 24z"/>
<path d="M731 2586 c-10 -12 -8 -13 10 -9 18 5 21 3 16 -10 -4 -11 -1 -17 8
-17 8 0 15 7 15 15 0 8 7 15 16 15 8 0 12 5 9 10 -9 15 -61 12 -74 -4z"/>
<path d="M884 2555 c4 -14 2 -34 -4 -45 -8 -15 -8 -20 3 -20 18 0 39 47 32 71
-4 11 -13 19 -22 19 -11 0 -14 -6 -9 -25z"/>
<path d="M592 2324 c-6 -11 -7 -27 -1 -41 5 -13 4 -25 -1 -28 -16 -10 -12 -55
4 -55 8 0 18 -5 21 -11 4 -6 0 -9 -10 -7 -14 2 -18 -5 -19 -35 -1 -24 4 -37
12 -37 6 0 12 -4 12 -10 0 -5 -6 -10 -14 -10 -8 0 -16 -10 -18 -22 -2 -17 -12
-25 -38 -29 l-35 -6 36 -2 c20 0 51 -4 69 -8 l33 -6 -7 94 c-16 210 -24 249
-44 213z"/>
<path d="M847 2297 c4 -19 10 -23 34 -22 25 2 29 -2 27 -19 -2 -14 5 -24 20
-31 27 -12 29 -25 3 -25 -11 0 -31 14 -46 31 -14 17 -29 28 -33 25 -3 -4 0
-11 8 -16 11 -7 11 -11 1 -24 -11 -13 -9 -15 16 -13 28 2 28 1 25 -48 l-2 -50
20 39 c23 45 36 56 68 56 12 0 21 5 20 13 -2 6 4 12 12 12 8 0 14 -6 12 -13
-1 -8 6 -16 17 -19 10 -3 21 -15 24 -26 2 -12 8 -30 12 -39 6 -14 2 -18 -17
-18 -21 0 -23 -3 -20 -40 3 -33 8 -40 26 -40 18 0 21 -6 21 -40 1 -34 -2 -40
-20 -40 -18 0 -21 -5 -17 -29 4 -28 3 -28 -37 -27 -38 1 -41 3 -41 28 0 16 -4
28 -10 28 -5 0 -10 -17 -10 -37 l0 -38 67 0 c38 0 75 -2 83 -5 13 -4 15 8 13
80 -5 167 -14 228 -37 262 -27 41 -125 93 -192 102 -50 6 -51 6 -47 -17z m136
-69 c-21 -24 -27 -17 -18 23 7 31 8 32 21 14 12 -16 12 -21 -3 -37z"/>
<path d="M495 2298 c-22 -6 -49 -15 -60 -21 -11 -6 -31 -16 -43 -23 -79 -41
-295 -282 -328 -365 -16 -38 -16 -42 3 -67 10 -15 32 -63 47 -107 58 -164 118
-255 168 -255 23 0 29 -4 24 -16 -4 -11 4 -19 28 -29 l34 -14 7 -181 c7 -162
9 -179 23 -168 11 9 14 9 9 1 -4 -6 -3 -14 3 -18 5 -3 10 -11 10 -17 0 -7 -5
-7 -14 1 -22 18 -25 -2 -19 -119 l6 -106 -32 -34 c-44 -48 -91 -120 -97 -150
-3 -14 -21 -38 -39 -55 -32 -29 -33 -31 -20 -60 l13 -30 1 28 c1 16 9 40 20
53 l19 24 25 -33 25 -33 -25 -22 c-14 -12 -33 -22 -44 -22 -10 0 -19 -4 -19
-10 0 -26 -20 -5 -33 35 l-16 44 30 26 c30 25 30 25 7 25 -50 0 -62 -21 -70
-117 -3 -48 -9 -113 -13 -144 -9 -69 10 -112 60 -136 28 -13 37 -14 50 -3 17
14 22 106 5 95 -6 -4 -24 -3 -41 0 -28 6 -30 9 -23 38 12 57 30 102 40 101 5
-1 24 -5 42 -9 31 -6 33 -5 31 17 -5 31 27 80 49 76 9 -2 29 10 44 27 l27 30
1 -91 c0 -75 3 -94 18 -107 25 -23 114 -23 133 -1 17 20 21 95 5 93 -26 -3
-36 2 -36 20 0 10 7 22 16 25 12 5 14 1 9 -15 -5 -16 -3 -20 6 -17 22 7 23 38
2 53 -10 8 -14 17 -9 22 5 4 11 2 13 -5 11 -31 23 6 23 73 l0 74 41 28 c134
93 174 129 205 189 37 71 63 192 45 203 -9 6 -8 11 4 21 17 14 21 90 5 90 -5
0 -10 -18 -10 -40 0 -48 -15 -53 -24 -9 -12 64 -6 112 21 158 14 25 31 49 36
53 6 3 12 35 14 70 3 40 1 58 -5 50 -5 -7 -7 -24 -4 -38 4 -22 1 -24 -29 -24
-26 0 -30 3 -19 10 13 9 13 11 0 20 -11 7 -16 5 -18 -8 -4 -23 -44 -50 -50
-33 -5 15 -22 14 -22 -2 0 -7 8 -17 18 -24 15 -9 21 -8 33 8 17 25 29 24 29
-1 0 -11 -4 -20 -10 -20 -18 0 -11 -20 8 -21 9 -1 4 -5 -13 -8 -16 -4 -50 -6
-75 -4 -33 3 -41 1 -30 -6 8 -6 27 -11 42 -11 43 0 56 -21 48 -76 -5 -31 -2
-66 7 -103 17 -65 12 -127 -18 -206 -21 -56 -89 -129 -164 -177 -74 -47 -105
-96 -105 -163 0 -18 -9 -55 -20 -81 -17 -38 -19 -53 -10 -77 5 -17 10 -41 10
-53 0 -20 -5 -24 -29 -24 -42 0 -61 32 -61 102 0 38 -5 62 -16 72 -17 18 -50
21 -59 6 -11 -18 -54 -11 -65 11 -14 25 21 98 83 171 l41 49 -2 98 -2 99 50
48 c55 52 61 71 30 99 -17 15 -24 16 -46 6 -15 -6 -29 -9 -33 -6 -3 4 -7 56
-9 116 l-4 109 78 1 c79 1 79 1 29 10 -27 5 -61 12 -74 15 l-24 5 22 16 c12 8
34 18 49 22 l27 8 -32 5 c-22 3 -33 0 -33 -8 0 -6 -10 -14 -22 -17 -23 -7 -54
9 -98 48 -14 12 -38 29 -55 36 -34 16 -99 131 -135 239 -12 36 -27 72 -34 80
-28 33 -25 49 15 100 27 34 35 50 24 50 -27 0 -16 19 13 22 15 2 26 8 24 16
-1 6 4 12 11 12 8 0 28 19 45 43 43 59 164 183 184 190 20 7 48 -26 48 -56 0
-12 6 -17 18 -15 13 2 18 15 20 56 3 47 5 52 26 52 13 0 26 7 30 15 6 17 -8
18 -69 3z m3 -1195 c12 -11 10 -17 -10 -33 -12 -11 -30 -18 -39 -16 -12 2 -15
-3 -11 -23 4 -25 4 -25 -11 -6 -20 26 -4 63 19 44 12 -10 13 -7 8 18 -5 24 -2
30 12 30 11 0 25 -6 32 -14z m-288 -873 c0 -6 -6 -10 -14 -10 -16 0 -38 24
-30 33 9 8 44 -11 44 -23z"/>
<path d="M537 2254 c-3 -3 -2 -17 3 -30 6 -15 6 -26 -1 -30 -8 -4 -7 -9 2 -15
24 -15 29 -10 18 18 -5 14 -8 32 -5 39 5 14 -7 27 -17 18z"/>
<path d="M670 2250 l-35 -7 26 -10 c30 -13 74 -6 90 13 9 11 6 14 -17 13 -16
-1 -45 -5 -64 -9z"/>
<path d="M835 2181 c-9 -16 13 -23 35 -11 11 6 20 13 20 15 0 9 -49 5 -55 -4z"/>
<path d="M391 2107 c-26 -29 -26 -34 0 -47 19 -11 20 -10 10 9 -9 16 -7 22 10
34 11 8 16 17 11 21 -5 3 -19 -5 -31 -17z"/>
<path d="M770 2104 c0 -8 5 -14 12 -14 7 0 6 -5 -4 -12 -12 -11 -18 -69 -32
-323 -9 -170 -16 -316 -16 -323 0 -10 -17 -12 -67 -10 -80 4 -74 -20 -50 203
25 235 31 371 17 380 -16 10 -20 3 -24 -42 -4 -49 -15 -69 -51 -93 l-29 -19
40 -6 c39 -7 39 -7 36 -46 -4 -33 -8 -39 -28 -39 -21 0 -24 -4 -24 -40 0 -33
3 -40 19 -40 17 0 20 -6 18 -40 -1 -35 -4 -40 -24 -40 -20 0 -23 -5 -23 -35 0
-19 0 -38 -1 -42 0 -5 10 -10 23 -13 16 -4 19 -8 10 -14 -7 -4 -12 -20 -10
-34 2 -21 -1 -27 -14 -26 -12 1 -18 -5 -18 -19 0 -16 3 -18 12 -9 20 20 38 14
38 -13 0 -26 14 -33 26 -14 8 14 95 4 105 -12 4 -7 9 -4 14 10 3 11 13 21 21
21 8 0 14 3 15 8 0 4 2 23 4 42 6 49 14 156 22 283 l6 107 66 0 c81 0 88 8 89
104 1 38 5 72 10 75 5 3 9 25 9 49 0 30 -4 42 -14 42 -11 0 -13 -7 -9 -24 6
-24 -9 -45 -22 -31 -3 3 -1 10 7 14 9 6 7 10 -8 14 -12 3 -21 2 -21 -1 0 -4
-3 -17 -6 -29 -5 -19 -2 -23 15 -23 18 0 21 -6 21 -47 0 -67 -8 -89 -39 -110
-25 -17 -95 -27 -86 -12 3 4 -2 12 -10 19 -10 9 -15 32 -15 77 0 56 3 66 20
70 31 8 27 64 -5 80 -20 9 -25 8 -25 -3z"/>
<path d="M460 2076 c0 -7 -9 -25 -21 -40 l-20 -26 20 0 c12 0 21 5 21 10 0 6
9 10 20 10 16 0 20 7 20 30 0 23 -4 30 -20 30 -11 0 -20 -6 -20 -14z"/>
<path d="M366 2002 c-7 -22 -9 -22 -30 -8 -21 13 -25 13 -44 -6 -18 -18 -23
-19 -37 -8 -8 7 -18 11 -21 8 -2 -3 8 -13 23 -23 15 -10 34 -27 43 -37 14 -18
16 -18 48 15 24 24 33 42 30 58 l-4 24 -8 -23z"/>
<path d="M800 2012 c0 -5 18 -9 40 -10 22 -1 40 3 40 8 0 6 -18 10 -40 10 -22
0 -40 -4 -40 -8z"/>
<path d="M415 1992 c-3 -3 -5 -19 -6 -36 0 -26 -2 -28 -9 -11 -5 11 -9 15 -9
10 -3 -33 -42 -335 -47 -358 -7 -33 -50 -59 -63 -38 -5 7 -16 52 -25 99 -10
48 -19 96 -21 106 -2 11 10 35 31 59 18 22 34 51 34 63 0 22 -42 59 -54 47
-10 -10 -7 -25 4 -18 13 8 24 -20 16 -41 -5 -14 -10 -13 -41 6 -30 18 -39 20
-75 10 -49 -13 -53 -23 -5 -14 64 12 103 -34 74 -87 -12 -23 13 -175 37 -220
9 -18 10 -30 4 -34 -6 -3 -10 -12 -9 -18 0 -9 2 -9 6 1 2 6 18 12 35 12 20 0
39 9 58 30 16 17 38 30 52 30 31 0 88 -36 88 -55 0 -8 7 -15 15 -15 13 0 13 3
-1 26 -15 22 -15 27 -3 34 11 7 10 10 -3 15 -10 4 -22 4 -28 0 -5 -3 -10 -2
-10 3 0 6 -6 10 -12 9 -41 -1 -48 4 -49 36 l-1 32 -13 -40 -13 -40 -1 43 c-1
39 1 42 27 44 15 0 37 0 50 -1 20 -2 22 3 22 44 0 32 -4 45 -14 45 -8 0 -18
-4 -21 -10 -3 -5 -13 -10 -21 -10 -12 0 -12 4 1 24 13 19 14 29 6 45 -14 26
-3 31 49 27 l42 -4 -31 27 c-17 15 -31 34 -31 44 0 9 -7 17 -16 17 -8 0 -12 5
-9 10 4 6 11 8 16 5 5 -4 9 7 9 23 0 26 -19 39 -35 24z m-1 -184 c8 -5 7 -8
-1 -8 -7 0 -13 -7 -13 -15 0 -8 -5 -15 -11 -15 -7 0 -9 9 -5 23 3 12 6 29 7
37 0 13 1 13 6 0 3 -8 11 -18 17 -22z m39 -74 c11 -11 -5 -34 -24 -34 -21 0
-22 1 -13 24 6 16 25 21 37 10z"/>
<path d="M467 1948 c-3 -20 0 -38 8 -47 11 -11 13 -6 13 33 0 53 -13 62 -21
14z"/>
<path d="M790 1943 c0 -31 5 -41 29 -55 24 -13 32 -14 40 -4 6 7 8 16 4 19 -3
4 -1 7 5 7 7 0 12 -5 12 -11 0 -8 5 -8 15 1 17 14 21 80 5 80 -5 0 -10 -14
-10 -31 0 -29 -1 -30 -42 -27 -40 3 -43 5 -40 31 2 15 -1 27 -7 27 -6 0 -11
-17 -11 -37z"/>
<path d="M542 1933 c-23 -3 -32 -9 -29 -17 3 -8 1 -18 -5 -24 -19 -19 9 -21
38 -1 16 10 25 19 20 19 -6 0 -1 7 10 15 10 8 15 14 9 13 -5 -1 -25 -3 -43 -5z"/>
<path d="M958 1849 c-10 -5 -18 -20 -17 -32 0 -12 3 -17 5 -10 3 7 12 9 20 6
10 -4 14 2 14 21 0 29 1 29 -22 15z"/>
<path d="M1064 1844 c3 -9 6 -21 6 -27 0 -7 4 -6 10 3 9 13 11 13 20 0 15 -22
12 -30 -10 -30 -13 0 -20 -7 -20 -20 0 -17 -7 -20 -40 -20 -33 0 -40 3 -40 20
0 15 -7 20 -26 20 -24 0 -26 -3 -20 -31 3 -17 6 -35 6 -39 0 -5 14 -2 31 7 35
17 94 11 122 -14 24 -22 28 -14 34 60 l6 64 -33 12 c-44 15 -53 14 -46 -5z"/>
<path d="M870 1714 c0 -29 4 -43 11 -39 5 4 20 4 32 1 20 -5 22 -11 19 -46 -4
-38 -6 -40 -38 -40 -29 0 -34 -3 -34 -24 0 -13 -3 -31 -6 -40 -5 -13 3 -16 46
-16 l53 0 -6 59 c-4 32 -2 72 2 89 7 23 6 34 -5 43 -8 6 -14 22 -14 35 0 20
-5 24 -30 24 -29 0 -30 -2 -30 -46z m35 -142 c18 -13 11 -37 -12 -40 -24 -3
-28 4 -17 32 7 18 14 19 29 8z"/>
<path d="M1084 1663 c-9 -34 -60 -219 -80 -288 -8 -27 -15 -74 -15 -104 -1
-68 -15 -101 -57 -136 -41 -34 -35 -42 13 -20 51 25 69 64 76 170 4 59 18 130
41 205 42 138 54 200 39 200 -6 0 -14 -12 -17 -27z"/>
<path d="M425 1530 c10 -11 28 -20 39 -20 18 0 17 3 -9 20 -39 26 -53 26 -30
0z"/>
<path d="M632 1353 c-21 -8 -33 -51 -47 -163 -17 -147 -15 -230 8 -244 26 -16
49 3 65 55 8 26 14 103 15 186 2 115 -1 145 -13 156 -8 8 -21 12 -28 10z m18
-37 c0 -14 -5 -93 -11 -177 -9 -136 -21 -200 -35 -186 -5 4 11 241 22 335 6
52 24 73 24 28z"/>
<path d="M560 328 c0 -20 -20 -34 -29 -21 -7 13 -81 22 -81 11 0 -4 -5 -7 -12
-6 -16 4 -61 -129 -54 -158 14 -55 117 -77 159 -35 16 16 21 32 19 66 -1 24 2
64 7 89 4 24 4 50 0 58 -7 10 -9 9 -9 -4z m-27 -36 c3 -4 3 -28 0 -55 l-6 -47
-53 0 -53 0 13 45 c8 25 11 45 8 45 -4 0 0 5 8 10 18 11 77 13 83 2z m-13
-147 c-7 -8 -27 -15 -45 -15 -18 0 -38 7 -45 15 -11 13 -5 15 45 15 50 0 56
-2 45 -15z"/>
</g>
</svg>
