<svg id="esCXqMUWokE1" xmlns="http://www.w3.org/2000/svg" xmlns:xlink="http://www.w3.org/1999/xlink" viewBox="0 0 81.016 81.016" shape-rendering="geometricPrecision" text-rendering="geometricPrecision"><g transform="translate(.000501 0.001001)"><g><circle r="17.217" transform="translate(40.509 17.217)"/><path d="M47.811,35.606h-14.608c-12.152,0-22.041,9.888-22.041,22.042v17.869l.045.279l1.232.385c11.598,3.623,21.676,4.834,29.971,4.834c16.199,0,25.59-4.621,26.172-4.914l1.15-.584h.121v-17.869c.001-12.154-9.886-22.042-22.042-22.042ZM43.91,70.283l-3.152,4.613c-.043.063-.111.1-.186.1-.002,0-.004,0-.006,0-.074,0-.145-.039-.186-.104l-2.928-4.616c-.025-.039-.037-.086-.035-.136l1.465-22.403c.008-.119.105-.209.225-.209h3.039c.119,0,.217.09.227.209l1.574,22.401c.006.053-.009.102-.037.145ZM42.484,46.85h-3.613L35.73,40.358c0-.623.504-1.125,1.127-1.125h7.543c.621,0,1.125.502,1.125,1.125L42.484,46.85Z"/></g></g></svg>
